<svg xmlns="http://www.w3.org/2000/svg" width="187.4" height="218.882" viewBox="0 0 187.4 218.882"><defs><style>.a{opacity:0.2;}.b{fill:#ccc;}.c{fill:#fff;}</style></defs><g transform="translate(-144.992 -62.897)"><g class="a" transform="translate(144.992 121.937)"><path class="b" d="M463.738,424.1a3.569,3.569,0,0,0-3.234-1.91H395.961a3.315,3.315,0,0,0-3.5,3.089v72.1a3.315,3.315,0,0,0,3.5,3.09h64.546a3.318,3.318,0,0,0,3.5-3.089v-72.1a2.729,2.729,0,0,0-.265-1.179Zm-.512,73.281a2.581,2.581,0,0,1-2.722,2.4H395.961a2.578,2.578,0,0,1-2.722-2.4v-72.1a2.581,2.581,0,0,1,2.722-2.4h64.546a2.755,2.755,0,0,1,2.526,1.512,2.455,2.455,0,0,1,.1.271,2.124,2.124,0,0,1,.093.62Z" transform="translate(-382.293 -385.618)"/><path class="b" d="M492.575,459.685H473.133a1.384,1.384,0,1,1,0-2.747h19.441a1.384,1.384,0,1,1,0,2.747Z" transform="translate(-425.763 -401.597)"/><path class="b" d="M492.575,477.235H473.133a1.384,1.384,0,1,1,0-2.747h19.441a1.384,1.384,0,1,1,0,2.747Z" transform="translate(-425.763 -412.321)"/><path class="b" d="M435.141,465.5H420.933a1.659,1.659,0,0,1-1.75-1.545v-14.8a1.659,1.659,0,0,1,1.75-1.545h14.208a1.659,1.659,0,0,1,1.75,1.545v14.805a1.659,1.659,0,0,1-1.75,1.545Z" transform="translate(-396.361 -396.34)"/><path class="b" d="M464.131,513.171H420.193a1.384,1.384,0,1,1,0-2.747h43.938a1.384,1.384,0,1,1,0,2.747Z" transform="translate(-396.556 -434.281)"/><path class="b" d="M464.131,530.721H420.193a1.384,1.384,0,1,1,0-2.747h43.938a1.384,1.384,0,1,1,0,2.747Z" transform="translate(-396.556 -445.005)"/><path class="b" d="M464.131,548.271H420.193a1.384,1.384,0,1,1,0-2.747h43.938a1.384,1.384,0,1,1,0,2.747Z" transform="translate(-396.556 -455.729)"/><path class="b" d="M464.131,565.821H420.193a1.384,1.384,0,1,1,0-2.747h43.938a1.384,1.384,0,1,1,0,2.747Z" transform="translate(-396.556 -466.454)"/><path class="b" d="M464.131,583.371H420.193a1.384,1.384,0,1,1,0-2.747h43.938a1.384,1.384,0,1,1,0,2.747Z" transform="translate(-396.556 -477.178)"/><ellipse class="b" cx="15.01" cy="13.254" rx="15.01" ry="13.254" transform="translate(31.528)"/><path class="c" d="M462.641,345.493a1.7,1.7,0,0,1-.937-.275l-.017-.011-3.528-2.383a1.28,1.28,0,0,1-.29-1.941,1.71,1.71,0,0,1,2.2-.256l2.285,1.547,5.4-6.22a1.709,1.709,0,0,1,2.2-.256h0l-.033.041.034-.041a1.281,1.281,0,0,1,.29,1.94l-6.351,7.313a1.649,1.649,0,0,1-1.247.54Z" transform="translate(-417.735 -327.434)"/><path class="b" d="M370.467,612.15h90.726a.414.414,0,1,0,0-.822H370.467a.414.414,0,1,0,0,.822Z" transform="translate(-370.002 -497.052)"/></g><g class="a" transform="translate(236.243 172.035)"><ellipse class="b" cx="13.503" cy="11.395" rx="13.503" ry="11.395" transform="translate(34.239)"/><path class="c" d="M254.29,311.42a1.579,1.579,0,0,1-.842-.236l-.015-.009-3.173-2.05a1.071,1.071,0,0,1-.262-1.668,1.59,1.59,0,0,1,1.977-.221l2.055,1.33,4.857-5.346a1.589,1.589,0,0,1,1.976-.22h0l-.03.034.031-.034a1.072,1.072,0,0,1,.261,1.668l-5.713,6.288a1.516,1.516,0,0,1-1.122.464Z" transform="translate(-207.886 -297.713)"/><path class="b" d="M274.638,360.55a3.757,3.757,0,0,0-3.377-1.907H203.838a3.408,3.408,0,0,0-3.655,3.084V433.7a3.408,3.408,0,0,0,3.655,3.084h67.423a3.411,3.411,0,0,0,3.655-3.084V361.727A2.624,2.624,0,0,0,274.638,360.55ZM274.1,433.7a2.653,2.653,0,0,1-2.841,2.4H203.838A2.648,2.648,0,0,1,201,433.7h0V361.727a2.653,2.653,0,0,1,2.841-2.4h67.423a2.9,2.9,0,0,1,2.639,1.511,2.385,2.385,0,0,1,.107.271,2.03,2.03,0,0,1,.1.619Z" transform="translate(-188.951 -327.743)"/><path class="b" d="M284.369,388.728H264.06a1.391,1.391,0,1,1,0-2.742h20.308a1.391,1.391,0,1,1,0,2.742Z" transform="translate(-212.753 -339.817)"/><path class="b" d="M284.369,402.538H264.06a1.391,1.391,0,1,1,0-2.742h20.308a1.391,1.391,0,1,1,0,2.742Z" transform="translate(-212.753 -346.811)"/><path class="b" d="M237.876,396.51H223.036a1.7,1.7,0,0,1-1.828-1.542V380.189a1.705,1.705,0,0,1,1.828-1.542h14.841a1.705,1.705,0,0,1,1.828,1.542v14.779A1.7,1.7,0,0,1,237.876,396.51Z" transform="translate(-196.99 -336.393)"/><path class="b" d="M268.3,430.814H222.4a1.391,1.391,0,1,1,0-2.742h45.9a1.391,1.391,0,1,1,0,2.742Z" transform="translate(-196.826 -361.133)"/><path class="b" d="M268.3,444.628H222.4a1.391,1.391,0,1,1,0-2.742h45.9a1.391,1.391,0,1,1,0,2.742Z" transform="translate(-196.826 -368.13)"/><path class="b" d="M268.3,458.433H222.4a1.391,1.391,0,1,1,0-2.742h45.9a1.391,1.391,0,1,1,0,2.742Z" transform="translate(-196.826 -375.122)"/><path class="b" d="M268.3,472.246H222.4a1.391,1.391,0,1,1,0-2.742h45.9a1.391,1.391,0,1,1,0,2.742Z" transform="translate(-196.826 -382.118)"/><path class="b" d="M268.3,486.052H222.4a1.391,1.391,0,1,1,0-2.742h45.9a1.391,1.391,0,1,1,0,2.742Z" transform="translate(-196.826 -389.111)"/><path class="b" d="M182.486,508.393h94.768a.416.416,0,1,0,0-.82H182.486a.416.416,0,1,0-.006.82Z" transform="translate(-181.998 -398.649)"/></g><g class="a" transform="translate(236.649 62.897)"><ellipse class="b" cx="13.503" cy="10.612" rx="13.503" ry="10.612" transform="translate(34.674)"/><path class="c" d="M674.29,310.825a1.666,1.666,0,0,1-.842-.22l-.015-.009-3.173-1.91a.96.96,0,0,1-.262-1.553,1.679,1.679,0,0,1,1.977-.206l2.055,1.239,4.857-4.978a1.678,1.678,0,0,1,1.976-.205h0l-.03.032.031-.032a.961.961,0,0,1,.261,1.553l-5.713,5.856a1.574,1.574,0,0,1-1.122.432Z" transform="translate(-627.368 -298.06)"/><path class="b" d="M694.638,360.419a3.815,3.815,0,0,0-3.377-1.776H623.838c-2.018,0-3.654,1.286-3.655,2.872v67.03c0,1.586,1.637,2.871,3.655,2.872h67.423c2.017,0,3.652-1.287,3.655-2.872v-67.03A2.306,2.306,0,0,0,694.638,360.419Zm-.534,68.127a2.6,2.6,0,0,1-2.841,2.233H623.838c-1.569,0-2.841-1-2.841-2.233h0V361.515a2.6,2.6,0,0,1,2.841-2.233h67.423a2.938,2.938,0,0,1,2.639,1.408,2.134,2.134,0,0,1,.107.252,1.772,1.772,0,0,1,.1.577Z" transform="translate(-608.849 -329.866)"/><path class="b" d="M704.369,388.54H684.06a1.314,1.314,0,1,1,0-2.554h20.308a1.314,1.314,0,1,1,0,2.554Z" transform="translate(-633.026 -342.989)"/><path class="b" d="M704.369,402.35H684.06a1.314,1.314,0,1,1,0-2.554h20.308a1.314,1.314,0,1,1,0,2.554Z" transform="translate(-633.026 -350.452)"/><path class="b" d="M657.877,395.283H643.036a1.669,1.669,0,0,1-1.828-1.436V380.083a1.67,1.67,0,0,1,1.828-1.436h14.841a1.67,1.67,0,0,1,1.828,1.436v13.763A1.669,1.669,0,0,1,657.877,395.283Z" transform="translate(-615.762 -339.296)"/><path class="b" d="M688.3,430.626H642.4a1.314,1.314,0,1,1,0-2.554h45.9a1.314,1.314,0,1,1,0,2.554Z" transform="translate(-616.559 -365.732)"/><path class="b" d="M688.3,444.44H642.4a1.314,1.314,0,1,1,0-2.554h45.9a1.314,1.314,0,1,1,0,2.554Z" transform="translate(-616.559 -373.197)"/><path class="b" d="M688.3,458.245H642.4a1.314,1.314,0,1,1,0-2.554h45.9a1.314,1.314,0,1,1,0,2.554Z" transform="translate(-616.559 -380.657)"/><path class="b" d="M688.3,472.058H642.4a1.314,1.314,0,1,1,0-2.554h45.9a1.314,1.314,0,1,1,0,2.554Z" transform="translate(-616.559 -388.122)"/><path class="b" d="M688.3,485.864H642.4a1.314,1.314,0,1,1,0-2.554h45.9a1.314,1.314,0,1,1,0,2.554Z" transform="translate(-616.559 -395.583)"/><path class="b" d="M602.486,508.337h94.768a.393.393,0,1,0,0-.764H602.486a.393.393,0,1,0-.005.764Z" transform="translate(-601.998 -406.132)"/></g></g></svg>