<svg xmlns="http://www.w3.org/2000/svg" width="318" height="171.299" viewBox="0 0 318 171.299"><defs><style>.a{fill:#ffb8b8;}.b{fill:#ccc;}.c{fill:#2f2e41;}.d{fill:#d4ded8;}.e{fill:#6c63ff;}.f{fill:#fff;}</style></defs><g transform="translate(22 -37.059)"><g transform="translate(208.112 50.358)"><path class="a" d="M985.845,406.857a3.674,3.674,0,0,1-1.74-2.548,3.737,3.737,0,0,1,.792-3L981.154,373.3l7.8.392,1.224,27.316a3.759,3.759,0,0,1,.373,4.893A3.554,3.554,0,0,1,985.845,406.857Z" transform="translate(-939.313 -321.82)"/><path class="b" d="M976.624,339.875a1.466,1.466,0,0,1-.6.431l-7.006,2.737a1.46,1.46,0,0,1-1.87-.8l-6.206-14.278a6.1,6.1,0,0,1-.285-4.222,5.717,5.717,0,0,1,4.314-3.96,5.283,5.283,0,0,1,2.329.034,5.689,5.689,0,0,1,4.058,3.611l5.518,14.934A1.538,1.538,0,0,1,976.624,339.875Z" transform="translate(-925.915 -287.631)"/><path class="a" d="M891.028,620.636H886.18L884.422,601.4l6.606.091Z" transform="translate(-876.831 -467.244)"/><path class="c" d="M868.868,650.551h9.347v6.026H862.981a5.957,5.957,0,0,1,5.886-6.026Z" transform="translate(-862.981 -498.577)"/><path class="a" d="M953.682,620.8h-4.847l-2.306-19.141h7.154Z" transform="translate(-916.948 -467.404)"/><path class="c" d="M932.522,650.551h9.347v6.026H926.635a5.957,5.957,0,0,1,5.886-6.026Z" transform="translate(-904.097 -498.577)"/><path class="c" d="M911.568,510.493l-7.612-.577a1.8,1.8,0,0,1-1.648-1.728l-1.7-35.916a1.381,1.381,0,0,0-2.738-.217l-7.081,35.38a1.789,1.789,0,0,1-1.885,1.45l-6.882-.564a1.809,1.809,0,0,1-1.632-1.961q0-.018,0-.036l6.385-65.362a1.831,1.831,0,0,1,.724-1.292,1.747,1.747,0,0,1,1.424-.306l24.28,5.4a1.818,1.818,0,0,1,1.4,1.812l-1.131,62.13A1.8,1.8,0,0,1,911.7,510.5C911.658,510.5,911.613,510.5,911.568,510.493Z" transform="translate(-874.224 -363.911)"/><ellipse class="a" cx="9.711" cy="9.942" rx="9.711" ry="9.942" transform="translate(20.973 2.519)"/><path class="b" d="M901.821,358.273a8.989,8.989,0,0,1-2.884-6.827c0-14.289,12.082-46.214,12.46-47.208.035-.24.354-.344,2.028-1.5s4.087-1.335,7.172-.529a1.793,1.793,0,0,1,1.285,1.343l.574.849a1.405,1.405,0,0,0,.8.974c2.488,1.073,10.4,6.022,7.7,24.648-2.5,17.3-3.52,27.475-3.84,31.048a1.8,1.8,0,0,1-1.61,1.646c-1.22.112-3.314.261-5.807.261C913.923,362.975,905.993,362.177,901.821,358.273Z" transform="translate(-886.205 -276.18)"/><path class="a" d="M873.643,389.436a3.753,3.753,0,0,1-.058-3.109,3.616,3.616,0,0,1,2.291-2.041L888.013,358.9l6.261,4.772L880.422,387.05a3.708,3.708,0,0,1-2.353,4.276,3.578,3.578,0,0,1-4.425-1.891Z" transform="translate(-869.632 -312.637)"/><path class="b" d="M917.769,332.785a1.433,1.433,0,0,1-.729.019l-7.308-1.724a1.506,1.506,0,0,1-1.12-1.727l2.62-15.4a6,6,0,0,1,2.061-3.669,5.563,5.563,0,0,1,5.738-.827,5.405,5.405,0,0,1,1.916,1.356,5.875,5.875,0,0,1,1.4,5.313L918.8,331.677A1.5,1.5,0,0,1,917.769,332.785Z" transform="translate(-892.442 -280.832)"/><path class="c" d="M925.366,252.713a4.351,4.351,0,0,1-1.123-3.8c.339-1.812.538-3,.575-3.431h0c.129-1.476-1.329-2.672-2.772-2.863-.056-.008-.1-.012-.142-.016.035.036.076.075.111.109.274.263.615.591.534.93-.049.2-.231.348-.556.441a4.652,4.652,0,0,1-5.468-1.868,4.513,4.513,0,0,1-.832-1.861,8.572,8.572,0,0,1,7.054-9.078A4.292,4.292,0,0,1,927,233.937a3.21,3.21,0,0,1,2.514-1.45,5.7,5.7,0,0,1,3.226.919,11.588,11.588,0,0,1,4.419,14.364,11.188,11.188,0,0,1-8.228,6.141,4.015,4.015,0,0,1-.686.059,3.956,3.956,0,0,1-2.877-1.257Z" transform="translate(-896.956 -231.269)"/></g><path class="d" d="M446.7,424.443a2.833,2.833,0,0,0-2.461-2.254H395.125c-1.47,0-2.662,1.633-2.663,3.646v85.079c0,2.013,1.192,3.645,2.663,3.646h49.119c1.47,0,2.661-1.633,2.663-3.646V425.835a4.751,4.751,0,0,0-.2-1.391Zm-.39,86.471c0,1.565-.928,2.834-2.071,2.836H395.125c-1.143,0-2.071-1.269-2.071-2.835v-85.08c0-1.565.928-2.834,2.071-2.836h49.119a2.2,2.2,0,0,1,1.923,1.784q.045.157.078.32a3.794,3.794,0,0,1,.071.732Z" transform="translate(-317.944 -333.351)"/><path class="b" d="M487.557,460.179H472.762c-.654,0-1.184-.726-1.184-1.621s.53-1.621,1.184-1.621h14.795c.654,0,1.184.726,1.184,1.621S488.21,460.179,487.557,460.179Z" transform="translate(-369.048 -351.254)"/><path class="b" d="M487.557,477.729H472.762c-.654,0-1.184-.726-1.184-1.621s.53-1.621,1.184-1.621h14.795c.654,0,1.184.726,1.184,1.621S488.21,477.729,487.557,477.729Z" transform="translate(-369.048 -360.296)"/><path class="e" d="M431.327,468.725H420.515c-.735,0-1.331-.817-1.332-1.823v-17.47c0-1.007.6-1.822,1.332-1.823h10.812c.735,0,1.331.817,1.332,1.823V466.9c0,1.007-.6,1.822-1.332,1.823Z" transform="translate(-335.204 -346.447)"/><path class="b" d="M453.258,513.665H419.822c-.654,0-1.184-.726-1.184-1.621s.53-1.621,1.184-1.621h33.436c.654,0,1.184.726,1.184,1.621S453.912,513.665,453.258,513.665Z" transform="translate(-334.852 -378.811)"/><path class="b" d="M453.258,531.215H419.822c-.654,0-1.184-.726-1.184-1.621s.53-1.621,1.184-1.621h33.436c.654,0,1.184.726,1.184,1.621S453.912,531.215,453.258,531.215Z" transform="translate(-334.852 -387.853)"/><path class="b" d="M453.258,548.765H419.822c-.654,0-1.184-.726-1.184-1.621s.53-1.621,1.184-1.621h33.436c.654,0,1.184.726,1.184,1.621S453.912,548.765,453.258,548.765Z" transform="translate(-334.852 -396.895)"/><path class="b" d="M453.258,566.315H419.822c-.654,0-1.184-.726-1.184-1.621s.53-1.621,1.184-1.621h33.436c.654,0,1.184.726,1.184,1.621S453.912,566.315,453.258,566.315Z" transform="translate(-334.852 -405.937)"/><path class="b" d="M453.258,583.865H419.822c-.654,0-1.184-.726-1.184-1.621s.53-1.621,1.184-1.621h33.436c.654,0,1.184.726,1.184,1.621S453.912,583.865,453.258,583.865Z" transform="translate(-334.852 -414.979)"/><path class="d" d="M822.616,667.7h314.771c.892,0,1.614-.217,1.614-.485s-.722-.485-1.614-.485H822.616c-.891,0-1.615.217-1.615.485S821.725,667.7,822.616,667.7Z" transform="translate(-843.002 -459.343)"/><ellipse class="e" cx="11.423" cy="15.64" rx="11.423" ry="15.64" transform="translate(91.149 37.059)"/><path class="f" d="M461.424,347.307a.994.994,0,0,1-.713-.324l-.013-.013-2.685-2.812a2.061,2.061,0,0,1-.221-2.29,1,1,0,0,1,1.673-.3l1.739,1.826,4.109-7.34a1,1,0,0,1,1.672-.3h0l-.026.048.026-.048a2.062,2.062,0,0,1,.221,2.29l-4.833,8.629a1.119,1.119,0,0,1-.949.637Z" transform="translate(-359.984 -288.642)"/><g transform="translate(0 18.333)"><ellipse class="b" cx="7.741" cy="8.776" rx="7.741" ry="8.776" transform="translate(19.627 24.358)"/><path class="f" d="M252.333,309.429a.743.743,0,0,1-.483-.182l-.009-.007-1.819-1.579a1,1,0,0,1-.15-1.285.747.747,0,0,1,1.133-.17l1.178,1.025,2.784-4.117a.746.746,0,0,1,1.133-.17h0l-.017.026.018-.026a1,1,0,0,1,.149,1.285l-3.275,4.843a.779.779,0,0,1-.643.358Z" transform="translate(-225.733 -272.947)"/><path class="b" d="M242.864,360.112a2.134,2.134,0,0,0-1.936-1.469h-38.65a2.25,2.25,0,0,0-2.1,2.375v55.436a2.25,2.25,0,0,0,2.1,2.375h38.65a2.251,2.251,0,0,0,2.095-2.375V361.018A2.606,2.606,0,0,0,242.864,360.112Zm-.306,56.343a1.751,1.751,0,0,1-1.629,1.847H202.278a1.748,1.748,0,0,1-1.629-1.847h0V361.018a1.751,1.751,0,0,1,1.629-1.847h38.65a1.654,1.654,0,0,1,1.513,1.164q.036.1.061.208a2.062,2.062,0,0,1,.056.477Z" transform="translate(-193.744 -306.4)"/><path class="b" d="M275.009,388.1H263.367a1.064,1.064,0,0,1,0-2.112h11.641a1.064,1.064,0,0,1,0,2.112Z" transform="translate(-233.956 -322.767)"/><path class="b" d="M275.009,401.908H263.367a1.064,1.064,0,0,1,0-2.112h11.641a1.064,1.064,0,0,1,0,2.112Z" transform="translate(-233.956 -331.033)"/><path class="b" d="M230.763,392.405h-8.507a1.126,1.126,0,0,1-1.048-1.188V379.835a1.126,1.126,0,0,1,1.048-1.188h8.507a1.126,1.126,0,0,1,1.048,1.188v11.383A1.126,1.126,0,0,1,230.763,392.405Z" transform="translate(-207.325 -318.374)"/><path class="b" d="M248.02,430.184h-26.31a1.064,1.064,0,0,1,0-2.112h26.31a1.064,1.064,0,0,1,0,2.112Z" transform="translate(-207.048 -347.958)"/><path class="b" d="M248.02,444h-26.31a1.064,1.064,0,0,1,0-2.112h26.31a1.064,1.064,0,0,1,0,2.112Z" transform="translate(-207.048 -356.226)"/><path class="b" d="M248.02,457.8h-26.31a1.064,1.064,0,0,1,0-2.112h26.31a1.064,1.064,0,0,1,0,2.112Z" transform="translate(-207.048 -364.489)"/><path class="b" d="M248.02,471.616h-26.31a1.064,1.064,0,0,1,0-2.112h26.31a1.064,1.064,0,0,1,0,2.112Z" transform="translate(-207.048 -372.757)"/><path class="b" d="M248.02,485.422h-26.31a1.064,1.064,0,0,1,0-2.112h26.31a1.064,1.064,0,0,1,0,2.112Z" transform="translate(-207.048 -381.021)"/><path class="b" d="M182.278,508.2H236.6a.318.318,0,0,0,0-.632H182.278a.318.318,0,0,0,0,.632Z" transform="translate(-181.998 -395.544)"/></g><g transform="translate(0 18.333)"><ellipse class="b" cx="7.741" cy="8.776" rx="7.741" ry="8.776" transform="translate(168.334 24.358)"/><path class="f" d="M672.333,309.429a.743.743,0,0,1-.483-.182l-.008-.007-1.819-1.579a1,1,0,0,1-.15-1.285.747.747,0,0,1,1.133-.17l1.178,1.025,2.784-4.117a.746.746,0,0,1,1.133-.17h0l-.017.026.018-.026a1,1,0,0,1,.149,1.285l-3.275,4.843a.779.779,0,0,1-.643.358Z" transform="translate(-497.026 -272.947)"/><path class="b" d="M662.864,360.112a2.134,2.134,0,0,0-1.936-1.469h-38.65a2.25,2.25,0,0,0-2.095,2.375v55.436a2.249,2.249,0,0,0,2.095,2.375h38.65a2.251,2.251,0,0,0,2.095-2.375V361.018A2.607,2.607,0,0,0,662.864,360.112Zm-.306,56.343a1.752,1.752,0,0,1-1.629,1.847H622.278a1.748,1.748,0,0,1-1.629-1.847h0V361.018a1.751,1.751,0,0,1,1.629-1.847h38.65a1.654,1.654,0,0,1,1.513,1.164q.035.1.061.208a2.06,2.06,0,0,1,.056.477Z" transform="translate(-465.037 -306.4)"/><path class="b" d="M695.008,388.1H683.367a1.064,1.064,0,0,1,0-2.112h11.641a1.064,1.064,0,0,1,0,2.112Z" transform="translate(-505.248 -322.767)"/><path class="b" d="M695.009,401.908H683.367a1.064,1.064,0,0,1,0-2.112h11.641a1.064,1.064,0,0,1,0,2.112Z" transform="translate(-505.248 -331.033)"/><path class="b" d="M650.763,392.405h-8.507a1.126,1.126,0,0,1-1.048-1.188V379.835a1.126,1.126,0,0,1,1.048-1.188h8.507a1.126,1.126,0,0,1,1.048,1.188v11.383A1.126,1.126,0,0,1,650.763,392.405Z" transform="translate(-478.618 -318.374)"/><path class="b" d="M668.02,430.184h-26.31a1.064,1.064,0,0,1,0-2.112h26.31a1.064,1.064,0,0,1,0,2.112Z" transform="translate(-478.341 -347.958)"/><path class="b" d="M668.02,444h-26.31a1.064,1.064,0,0,1,0-2.112h26.31a1.064,1.064,0,0,1,0,2.112Z" transform="translate(-478.341 -356.226)"/><path class="b" d="M668.02,457.8h-26.31a1.064,1.064,0,0,1,0-2.112h26.31a1.064,1.064,0,0,1,0,2.112Z" transform="translate(-478.341 -364.489)"/><path class="b" d="M668.02,471.616h-26.31a1.064,1.064,0,0,1,0-2.112h26.31a1.064,1.064,0,0,1,0,2.112Z" transform="translate(-478.341 -372.757)"/><path class="b" d="M668.02,485.422h-26.31a1.064,1.064,0,0,1,0-2.112h26.31a1.064,1.064,0,0,1,0,2.112Z" transform="translate(-478.341 -381.021)"/><path class="b" d="M602.278,508.2H656.6a.318.318,0,0,0,0-.632H602.278a.318.318,0,0,0,0,.632Z" transform="translate(-453.29 -395.544)"/></g><path class="d" d="M370.356,612.3H439.4c.2,0,.354-.217.354-.485s-.159-.485-.354-.485H370.356c-.2,0-.354.217-.354.485S370.161,612.3,370.356,612.3Z" transform="translate(-303.436 -430.798)"/></g></svg>