<svg xmlns="http://www.w3.org/2000/svg" width="318" height="184.706" viewBox="0 0 318 184.706"><defs><style>.a{fill:#f2f2f2;}.b{fill:#fff;}.c{fill:#6c63ff;}.d{fill:#d4ded8;}.e{fill:#2f2e41;}.f{fill:#ffb8b8;}.g{fill:#ccc;}</style></defs><g transform="translate(0 -1)"><path class="a" d="M507.487,600.617a73.7,73.7,0,0,1-15.19.775,67.215,67.215,0,0,1-34.559-11.476c-4.56-3.133-8.911-6.982-11.271-12.152a22.383,22.383,0,0,1,2.492-22.026,21.339,21.339,0,0,1,6.048-5.447c.345-.206.7-.4,1.053-.593a21.66,21.66,0,0,1,12.545-2.425c7.337.847,14.108,5.578,18.019,12.188,3.485,5.894,4.7,12.849,5.414,19.819.135,1.313.251,2.631.363,3.94a60.44,60.44,0,0,1-2.926,11.1,4.042,4.042,0,0,0-.165.538q1.124,2.575,2.14,5.2a4.15,4.15,0,0,0,2.072.554h13.935Z" transform="translate(-343.853 -415.861)"/><path class="b" d="M508.455,604.754a.725.725,0,0,1-.589.014.783.783,0,0,1-.423-.434c-.06-.15-.116-.3-.176-.451q-.809-2.077-1.7-4.114a124.694,124.694,0,0,0-33.038-45.137.6.6,0,0,1-.232-.542.8.8,0,0,1,.391-.565.726.726,0,0,1,.662-.028.715.715,0,0,1,.157.1,122.442,122.442,0,0,1,16.584,17.386,128.225,128.225,0,0,1,13.081,20.436q1.523,2.967,2.893,6.017c.18.4.36.811.536,1.218q1.124,2.575,2.14,5.2c.011.028.022.059.034.087a.615.615,0,0,1,.013.483.568.568,0,0,1-.335.328Z" transform="translate(-361.147 -419.661)"/><ellipse class="c" cx="14.613" cy="15.428" rx="14.613" ry="15.428" transform="translate(82.998 102.062)"/><path class="b" d="M424.022,509.229a1.464,1.464,0,0,1-.912-.32l-.016-.013-3.434-2.776a1.672,1.672,0,0,1-.283-2.258,1.473,1.473,0,0,1,2.139-.3l2.224,1.8L429,498.126a1.473,1.473,0,0,1,2.139-.3l-.033.047.034-.046a1.673,1.673,0,0,1,.282,2.258l-6.183,8.513A1.5,1.5,0,0,1,424.022,509.229Z" transform="translate(-327.86 -385.853)"/><path class="d" d="M493.217,683.282H176.108a.472.472,0,0,1,0-.942H493.216a.472.472,0,0,1,0,.942Z" transform="translate(-175.662 -497.575)"/><ellipse class="e" cx="10.844" cy="11.448" rx="10.844" ry="11.448" transform="translate(51.187 30.882)"/><path class="e" d="M4.268-.609C6.815-.678,8.838.815,8.786,2.725S6.627,6.24,4.08,6.309-.49,4.886-.438,2.975,1.72-.54,4.268-.609Z" transform="translate(46.22 34.581) rotate(-45)"/><path class="e" d="M3.111-.3C5.057-.342,6.594,1.654,6.544,4.154S4.876,8.71,2.93,8.747-.554,6.789-.5,4.289,1.164-.267,3.111-.3Z" transform="translate(64.138 31.781) rotate(-66.869)"/><path class="f" d="M379.776,426.689a4.463,4.463,0,0,0,.162-3.592,4.118,4.118,0,0,0-2.5-2.437l-15.669-34.993-7.167,5.306L372.252,423.7a4.326,4.326,0,0,0,2.505,5.021,3.959,3.959,0,0,0,5.018-2.034Z" transform="translate(-287.55 -318.263)"/><path class="g" d="M360.482,379.075,352.16,383a1.718,1.718,0,0,1-1.5-.014,1.881,1.881,0,0,1-.972-1.211l-2.454-9.238a5.412,5.412,0,0,1,2.549-6.983,4.912,4.912,0,0,1,6.615,2.691l4.872,8.063a2,2,0,0,1,.207,1.572,1.877,1.877,0,0,1-.992,1.192Z" transform="translate(-282.674 -305.833)"/><path class="f" d="M272.422,431.728a4.069,4.069,0,0,0,2.68-2.219,4.464,4.464,0,0,0,.109-3.594l14.839-35.394-8.489-2.257-11.917,35.5a4.375,4.375,0,0,0-1.962,5.284,4.01,4.01,0,0,0,4.739,2.679Z" transform="translate(-233.046 -319.833)"/><path class="f" d="M94.289,418.177l4.317,1.659,8.116-16.788-6.371-2.449Z" transform="translate(-58.959 -242.126)"/><path class="e" d="M.14,1.394l14.532.259.1,5.853L5.854,7.347A5.985,5.985,0,0,1,.14,1.394Z" transform="matrix(-0.94, -0.342, 0.342, -0.94, 46.168, 186.5)"/><path class="e" d="M285.917,563.742a1.712,1.712,0,0,1-.766-.182l-4.961-2.481a1.94,1.94,0,0,1-.925-2.37l14-40.931a1.824,1.824,0,0,1,1.523-1.249,1.778,1.778,0,0,1,1.722.916l7.405,13.03a2,2,0,0,1,.019,1.926l-16.444,30.382A1.8,1.8,0,0,1,285.917,563.742Z" transform="translate(-240.377 -397.353)"/><ellipse class="f" cx="9.203" cy="9.716" rx="9.203" ry="9.716" transform="translate(53.171 35.347)"/><path class="g" d="M334.255,392.924l-16.295-4.731-8.667-18.3a6.046,6.046,0,0,1,.239-5.61,5.4,5.4,0,0,1,4.646-2.735h12.964a5.294,5.294,0,0,1,3.646,1.472c3.478,3.289,10.784,12.772,3.537,29.738Z" transform="translate(-258.861 -303.686)"/><path class="g" d="M306.921,382.633l-8.256-4.08a1.882,1.882,0,0,1-.972-1.21,2,2,0,0,1,.233-1.568l5.017-8a4.9,4.9,0,0,1,6.672-2.529,5.423,5.423,0,0,1,2.4,7.044l-2.595,9.163a1.877,1.877,0,0,1-.991,1.193,1.718,1.718,0,0,1-1.5-.013Z" transform="translate(-251.925 -305.614)"/><path class="f" d="M173.426,428.048h4.593l2.186-18.707h-6.78Z" transform="translate(-108.442 -247.41)"/><path class="e" d="M0,0H14.438V5.889H5.578A5.74,5.74,0,0,1,0,0Z" transform="translate(78.436 185.141) rotate(179.997)"/><path class="e" d="M325.377,514.712a1.822,1.822,0,0,1-1.76-1.509c-1.32-6.568-8.178-40.212-13.531-57.542-5.446-17.632,3.829-25.663,5.743-27.093a1.473,1.473,0,0,0,.469-.6l1.391-3.23a1.809,1.809,0,0,1,1.648-1.118h.011c10.427.066,13.933,3.536,14.956,5.025a1.969,1.969,0,0,1,.282,1.553l-6.6,28.737a1.563,1.563,0,0,0-.027.545l6.564,52.178a1.984,1.984,0,0,1-.365,1.422,1.784,1.784,0,0,1-1.217.722l-7.355.9A1.745,1.745,0,0,1,325.377,514.712Z" transform="translate(-258.659 -341.203)"/><path class="e" d="M316.318,305.794a12.059,12.059,0,0,0,7.153,2.334,7.454,7.454,0,0,1-3.04,1.32,23.936,23.936,0,0,0,10.31.061,6.44,6.44,0,0,0,2.158-.783,2.873,2.873,0,0,0,1.332-1.881c.226-1.364-.781-2.6-1.827-3.439a12.914,12.914,0,0,0-11.325-2.389,6.129,6.129,0,0,0-3.354,2,3.368,3.368,0,0,0-.282,3.831Z" transform="translate(-263.614 -266.842)"/><ellipse class="c" cx="4.871" cy="5.143" rx="4.871" ry="5.143" transform="translate(216.766 70.81)"/><path class="b" d="M763.118,406.262a.488.488,0,0,1-.3-.107l-.005,0-1.145-.925a.557.557,0,0,1-.094-.753.491.491,0,0,1,.713-.1l.742.6,1.752-2.413a.491.491,0,0,1,.713-.1l-.011.016.011-.015a.558.558,0,0,1,.094.753l-2.061,2.838A.5.5,0,0,1,763.118,406.262Z" transform="translate(-541.963 -328.347)"/><ellipse class="c" cx="4.871" cy="5.143" rx="4.871" ry="5.143" transform="translate(216.766 85.843)"/><path class="b" d="M763.118,444.262a.489.489,0,0,1-.3-.107l-.005,0-1.145-.925a.557.557,0,0,1-.094-.753.491.491,0,0,1,.713-.1l.742.6,1.752-2.413a.491.491,0,0,1,.713-.1l-.011.016.011-.015a.558.558,0,0,1,.094.753l-2.061,2.838a.5.5,0,0,1-.4.21Z" transform="translate(-541.963 -351.315)"/><ellipse class="c" cx="4.871" cy="5.143" rx="4.871" ry="5.143" transform="translate(219.389 103.249)"/><path class="b" d="M770.118,488.262a.488.488,0,0,1-.3-.107l-.005,0-1.145-.925a.557.557,0,0,1-.094-.753.491.491,0,0,1,.713-.1l.741.6,1.752-2.413a.491.491,0,0,1,.713-.1l-.011.016.011-.015a.558.558,0,0,1,.094.753l-2.061,2.838a.5.5,0,0,1-.4.21Z" transform="translate(-546.34 -377.909)"/><path class="d" d="M739.226,366.607c-.051,0-.082,0-.094,0h-6.047v-.941h6.069c.141.005,3.008.091,5.649-3.293,3.937-5.043,7.169-17.528.215-48.366-9.352-41.466-1.552-78.1,2.235-91.924a4.8,4.8,0,0,0-.706-4.033,4.274,4.274,0,0,0-3.478-1.828H652.754a4.3,4.3,0,0,0-3.522,1.893c-1.6,2.33-3.806,6.806-5.184,14.9l-.878-.166c1.408-8.27,3.681-12.877,5.34-15.287a5.178,5.178,0,0,1,4.243-2.281H743.07a5.151,5.151,0,0,1,4.19,2.2,5.781,5.781,0,0,1,.85,4.86c-3.768,13.753-11.527,50.2-2.225,91.444,7.052,31.272,3.662,44.027-.424,49.221C742.766,366.434,739.8,366.607,739.226,366.607Z" transform="translate(-467.995 -214.279)"/><path class="d" d="M698.765,410.037c-.052,0-.085,0-.1,0h-6.234v-.941h6.257c.146,0,3.1.091,5.824-3.293,4.058-5.043,7.391-17.528.221-48.366-9.641-41.466-1.6-78.1,2.3-91.924a4.679,4.679,0,0,0-.728-4.033,4.447,4.447,0,0,0-3.585-1.828H609.621a4.469,4.469,0,0,0-3.631,1.893c-1.654,2.33-3.924,6.806-5.344,14.9l-.9-.166c1.451-8.27,3.795-12.877,5.505-15.287a5.384,5.384,0,0,1,4.374-2.281h93.107a5.359,5.359,0,0,1,4.32,2.2,5.639,5.639,0,0,1,.876,4.86c-3.884,13.753-11.883,50.2-2.293,91.444,7.27,31.272,3.775,44.027-.437,49.221C702.415,409.863,699.354,410.037,698.765,410.037Z" transform="translate(-440.838 -240.528)"/><path class="d" d="M656.906,400.649c-9.3-41.248-1.544-77.694,2.226-91.444a5.785,5.785,0,0,0-.851-4.86,5.155,5.155,0,0,0-4.189-2.206H563.775a5.174,5.174,0,0,0-4.242,2.279c-3.646,5.293-11.211,22.845-2.761,71.412,4.519,25.982,4.451,43.7,2.975,55.367a65.132,65.132,0,0,1-3.264,14.36l-.123.332A5.734,5.734,0,0,0,557.682,452a4.962,4.962,0,0,0,1.188.87,5.043,5.043,0,0,0,2.361.593h88.924c.011,0,.041,0,.094,0,.57,0,3.541-.174,6.235-3.6C660.567,444.674,663.958,431.92,656.906,400.649Zm-1.083,48.582c-2.642,3.386-5.508,3.3-5.647,3.3H561.231a4.3,4.3,0,0,1-3.609-2.021,4.7,4.7,0,0,1-.6-3.73,4.018,4.018,0,0,1,.165-.538,60.443,60.443,0,0,0,2.926-11.1c2.113-12.164,2.507-30.935-2.462-59.477-8.386-48.207-.97-65.494,2.6-70.688a4.307,4.307,0,0,1,3.522-1.891h90.318a4.274,4.274,0,0,1,3.475,1.828,4.8,4.8,0,0,1,.706,4.031c-3.788,13.826-11.586,50.461-2.233,91.927C663,431.7,659.762,444.187,655.824,449.231Z" transform="translate(-411.562 -267.778)"/><path class="g" d="M632.32,404.172H585.787a3.771,3.771,0,0,1,0-7.531H632.32a3.771,3.771,0,0,1,0,7.531Z" transform="translate(-429.882 -324.896)"/><path class="g" d="M632.32,445.173H585.787a3.771,3.771,0,0,1,0-7.531H632.32a3.771,3.771,0,0,1,0,7.531Z" transform="translate(-429.882 -349.677)"/><path class="g" d="M642.32,487.172H595.787a3.771,3.771,0,0,1,0-7.531H642.32a3.771,3.771,0,0,1,0,7.531Z" transform="translate(-436.135 -375.062)"/><path class="g" d="M649.32,531.173H602.787a3.771,3.771,0,0,1,0-7.531H649.32a3.771,3.771,0,0,1,0,7.531Z" transform="translate(-440.512 -401.657)"/><path class="c" d="M671.224,330.262H637.786a3.771,3.771,0,0,1,0-7.531h33.438a3.771,3.771,0,0,1,0,7.531Z" transform="translate(-462.397 -280.224)"/><ellipse class="g" cx="4.871" cy="5.143" rx="4.871" ry="5.143" transform="translate(222.387 120.608)"/><path class="g" d="M655.32,574.173H608.787a3.771,3.771,0,0,1,0-7.531H655.32a3.771,3.771,0,0,1,0,7.531Z" transform="translate(-444.264 -427.646)"/><ellipse class="g" cx="4.871" cy="5.143" rx="4.871" ry="5.143" transform="translate(224.635 137.618)"/></g></svg>